<svg xmlns="http://www.w3.org/2000/svg" width="1000" height="130" viewBox="0 0 1000 130">
<defs><linearGradient id="g" x1="0" y1="0" x2="1" y2="0"><stop offset="0%" stop-color="#2E9EF7"/><stop offset="100%" stop-color="#A371F7"/></linearGradient>
<style>
  .t{font-family: 'Segoe UI', -apple-system, Helvetica, Arial, sans-serif;} .m{font-family: Consolas, 'Cascadia Code', 'Courier New', monospace;}
  .w1{animation:wave 6s linear infinite}.w2{animation:wave 9s linear infinite reverse}
  @keyframes wave{to{transform:translateX(-500px)}}
  .fu{opacity:0;animation:up .8s ease .3s forwards}
  @keyframes up{from{opacity:0;transform:translateY(8px)}to{opacity:1;transform:translateY(0)}}
</style>
<clipPath id="c"><rect x="5" y="5" width="990" height="120" rx="15"/></clipPath></defs>
<rect x="4" y="4" width="992" height="122" rx="16" fill="#0D1117" stroke="#30363D" stroke-width="1.5"/>
<g clip-path="url(#c)">
  <path class="w1" d="M0 95 q62.5 -22 125 0 t125 0 q62.5 -22 125 0 t125 0 q62.5 -22 125 0 t125 0 q62.5 -22 125 0 t125 0 q62.5 -22 125 0 t125 0 q62.5 -22 125 0 t125 0 q62.5 -22 125 0 t125 0 q62.5 -22 125 0 t125 0" fill="none" stroke="url(#g)" stroke-width="2" opacity=".8"/>
  <path class="w2" d="M-250 102 q62.5 -14 125 0 t125 0 q62.5 -14 125 0 t125 0 q62.5 -14 125 0 t125 0 q62.5 -14 125 0 t125 0 q62.5 -14 125 0 t125 0 q62.5 -14 125 0 t125 0 q62.5 -14 125 0 t125 0 q62.5 -14 125 0 t125 0 q62.5 -14 125 0 t125 0" fill="none" stroke="#30363D" stroke-width="1.5"/>
</g>
<g class="fu">
  <text class="t" x="500" y="42" font-size="20" font-weight="700" fill="#E6EDF3" text-anchor="middle">Thanks for stopping by</text>
  <text class="m" x="500" y="68" font-size="13" fill="#8B949E" text-anchor="middle"><tspan fill="#2E9EF7">$</tspan> echo "turning data into decisions"</text>
</g>
</svg>